<svg width="37" height="41" fill="none" xmlns="http://www.w3.org/2000/svg"><path d="M20.833 10V7.542a5.832 5.832 0 10-11.666 0v5.833a.833.833 0 001.666 0v-1.708H17.5V10h-6.667V7.542a4.167 4.167 0 118.334 0v5.792a.833.833 0 001.666 0v-1.667H25v15H5v-15h2.5V10H3.333v16.742a1.592 1.592 0 001.592 1.591h20.15a1.592 1.592 0 001.592-1.591V10h-5.834z" fill="#545454"/><circle cx="24.5" cy="28.5" r="12.5" fill="#B58269"/><path d="M28.76 33.493v1.176h-6.64v-1.176h2.655v-8.45c0-.253.008-.51.026-.77l-2.206 1.895a.541.541 0 01-.225.12.627.627 0 01-.207 0 .46.46 0 01-.303-.182l-.484-.665 3.693-3.191h1.254v11.243h2.439z" fill="#fff"/></svg>