<svg width="145" height="83" fill="none" xmlns="http://www.w3.org/2000/svg"><path d="M0 77.518c0 .651.456 1.213 1.093 1.346l15.766 3.298a1.374 1.374 0 001.654-1.345v-48.02c0-.176.036-.348.072-.52a2.719 2.719 0 00.047-.264c.274-2.59 1.02-4.84 2.238-6.755 1.57-2.582 3.646-4.547 6.227-5.894 2.693-1.347 5.722-2.02 9.088-2.02 4.937 0 9.089 1.515 12.455 4.546 3.366 2.919 5.049 7.072 5.049 12.46v46.784c0 .759.615 1.375 1.373 1.375h15.766c.76 0 1.374-.616 1.374-1.375V33.017c0-.149.026-.296.052-.442l.02-.114a2 2 0 00.015-.115c.243-2.73 1-5.092 2.27-7.088 1.57-2.582 3.702-4.547 6.395-5.894 2.693-1.347 5.666-2.02 8.92-2.02 4.937 0 9.088 1.515 12.454 4.546 3.366 2.919 5.049 7.072 5.049 12.46v46.784c0 .167.03.327.085.475l18.429-14.2v-37.1c0-6.286-1.403-11.675-4.208-16.165-2.805-4.49-6.564-7.97-11.276-10.44C105.694 1.234 100.421 0 94.587 0 88.863 0 83.59 1.29 78.765 3.873a31.186 31.186 0 00-9.583 7.732c-.72.866-2.101.826-2.78-.073-2.455-3.25-5.515-5.86-9.18-7.828C52.623 1.234 47.462 0 41.74 0c-5.722 0-10.883 1.29-15.484 3.873a28.666 28.666 0 00-4.733 3.172c-1.128.933-3.009.182-3.009-1.282V3.059c0-.76-.615-1.375-1.373-1.375H1.374C.615 1.684 0 2.299 0 3.059v74.46zm125.891-9.104l-17.949 13.83c.227.167.506.265.809.265h15.547c.88 0 1.593-.713 1.593-1.593V68.414zm10.963 2.846a1.592 1.592 0 012.758 0l5.172 8.957a1.592 1.592 0 01-1.379 2.388h-10.344a1.592 1.592 0 01-1.379-2.388l5.172-8.957z" fill="#fff"/></svg>