<svg width="100" height="100" fill="none" xmlns="http://www.w3.org/2000/svg"><path fill-rule="evenodd" clip-rule="evenodd" d="M48.57 1.905c-.959.242-2.267.92-4.197 2.179-3.046 1.985-3.094 1.998-7.521 1.955-3.632-.035-3.917-.012-4.987.404-1.758.683-2.95 2.018-4.544 5.086-1.81 3.48-2.17 3.848-5.432 5.538-2.095 1.084-2.96 1.653-3.86 2.534-1.733 1.7-1.877 2.247-1.884 7.194-.006 4.585.074 4.28-1.973 7.464C12.15 37.402 12 37.804 12 40.046c0 2.246.175 2.712 2.157 5.752 2.042 3.131 1.978 2.888 1.987 7.595l.007 4.07.552 1.196c.773 1.674 2.019 2.718 5.24 4.392 2.834 1.471 3.598 2.127 4.578 3.929l.514.943-5.3 9.748c-5.721 10.522-5.722 10.523-4.929 11.823.715 1.173 1.156 1.277 5.83 1.382l4.214.095 2.337 3.407c1.343 1.96 2.602 3.59 2.96 3.834 1.21.826 2.769.385 3.652-1.034.245-.394 2.731-4.934 5.524-10.088 2.794-5.154 5.138-9.438 5.21-9.52.07-.081.548.04 1.06.27 1.33.599 3.775.603 5.081.01.513-.233.99-.357 1.06-.277.07.08 2.41 4.363 5.197 9.517 2.788 5.154 5.275 9.694 5.526 10.088.906 1.422 2.451 1.86 3.66 1.034.359-.245 1.617-1.874 2.96-3.834l2.338-3.407 4.213-.095c4.675-.105 5.116-.21 5.83-1.382.716-1.172.549-1.76-1.642-5.795-1.108-2.04-2.144-3.857-2.302-4.04-.388-.448-1.586-.44-1.997.016-.588.649-.37 1.374 1.388 4.614.936 1.725 1.755 3.274 1.819 3.442.105.274-.242.307-3.358.317-4.07.013-5.11.148-5.743.742-.254.239-1.411 1.828-2.572 3.532-1.16 1.704-2.166 3.098-2.236 3.098-.229 0-10.65-19.35-10.554-19.599.05-.133.797-.595 1.658-1.026l1.565-.783 3.701.037c4.873.048 6.05-.287 7.74-2.207l.761-.866 1.19 2.236c1.364 2.563 1.806 3.087 2.602 3.087.628 0 1.347-.734 1.347-1.375 0-.208-.808-1.869-1.796-3.692l-1.797-3.313.512-.94c.979-1.799 1.745-2.457 4.562-3.92 3.217-1.672 4.341-2.61 5.184-4.323l.624-1.268.004-4.073c.004-4.707-.064-4.448 1.99-7.597 1.982-3.04 2.156-3.506 2.156-5.752 0-2.245-.174-2.71-2.156-5.751-2.043-3.133-1.982-2.902-1.989-7.5-.007-4.894-.155-5.455-1.897-7.194-.894-.893-1.72-1.44-3.86-2.555-3.28-1.71-3.617-2.052-5.418-5.517-1.595-3.068-2.787-4.403-4.545-5.086-1.07-.416-1.355-.44-4.986-.404-4.448.043-4.435.046-7.645-2.033-2.49-1.613-3.667-2.111-5.202-2.204-.707-.042-1.605.004-1.996.103zm3.027 2.991c.496.19 1.92 1.002 3.166 1.803 3.242 2.088 3.822 2.237 8.432 2.172 5.117-.072 5.208-.017 7.52 4.483 1.754 3.416 2.78 4.423 6.446 6.322 4.121 2.135 4.329 2.498 4.13 7.213-.077 1.813-.048 3.332.075 3.975.257 1.338 1.036 2.993 2.27 4.822 2.508 3.717 2.515 4.993.046 8.653-2.246 3.329-2.572 4.539-2.39 8.864.197 4.707-.047 5.12-4.311 7.316-3.423 1.762-4.557 2.871-6.164 6.03-2.378 4.678-2.382 4.68-8.09 4.712-4.85.028-4.688-.018-8.418 2.38-3.891 2.502-4.533 2.5-8.422-.036-1.145-.746-2.596-1.575-3.225-1.84-1.1-.464-1.299-.483-5.214-.502-3.784-.018-4.128-.049-4.877-.431-1.01-.515-1.663-1.41-3.124-4.282-1.615-3.177-2.752-4.29-6.157-6.032-1.384-.707-2.845-1.6-3.246-1.981-1.061-1.01-1.22-1.798-1.07-5.334.18-4.325-.146-5.535-2.391-8.864-2.47-3.66-2.462-4.936.046-8.653 1.233-1.829 2.013-3.484 2.27-4.822.123-.643.151-2.162.075-3.975-.2-4.715.008-5.078 4.13-7.213 3.624-1.878 4.717-2.935 6.343-6.133 1.456-2.862 2.11-3.761 3.124-4.296.768-.405.987-.423 4.499-.375 4.612.063 5.213-.091 8.446-2.172 3.417-2.2 4.337-2.473 6.081-1.804zm-4.399 5.921c-6.367.664-12.415 3.389-16.859 7.596-1.495 1.415-1.614 1.582-1.561 2.193.072.84.832 1.47 1.555 1.288.27-.068 1.15-.726 1.957-1.463 3.605-3.292 7.747-5.383 12.73-6.429 2.571-.539 7.001-.593 9.603-.117 3.7.676 7.571 2.257 10.621 4.338 3.157 2.153 6.846 6.414 8.64 9.98 2.903 5.766 3.537 12.903 1.707 19.226-2.031 7.024-7.09 13.07-13.693 16.367-2.055 1.026-4.968 1.993-7.222 2.398-2.398.43-6.682.428-9.087-.005-9.388-1.69-17.29-8.359-20.438-17.245-1.413-3.99-1.878-8.788-1.249-12.873.39-2.532 1.508-5.982 2.659-8.211.919-1.78 1.056-2.622.508-3.118-.46-.416-1.595-.406-1.977.017-.522.58-2.182 4.076-2.768 5.832-1.145 3.43-1.424 5.283-1.424 9.455 0 3.229.063 4.08.43 5.774 1.204 5.561 3.782 10.48 7.552 14.408 4.654 4.849 10.23 7.767 16.99 8.893 1.703.283 6.804.285 8.52.002 6.768-1.114 12.394-4.07 17.035-8.95 3.799-3.996 6.294-8.784 7.523-14.435.35-1.605.415-2.503.415-5.692 0-3.221-.064-4.082-.429-5.774-1.56-7.236-5.485-13.39-11.346-17.792-5.806-4.359-13.203-6.413-20.392-5.663zm1.136 10.085c-.693.409-.975.872-3.313 5.441l-2.556 4.995-5.206.764c-3.237.476-5.435.887-5.811 1.089-1.511.808-2.234 3.026-1.469 4.506.184.355 2.035 2.307 4.113 4.337l3.78 3.692-.92 5.42-.918 5.419.376.903c.552 1.326 1.52 2.033 2.916 2.134 1.238.09 1.379.029 7.779-3.37 1.567-.833 2.926-1.514 3.019-1.514.093 0 2.284 1.112 4.868 2.47l4.7 2.472 1.177-.066c.974-.054 1.299-.165 1.893-.645.413-.334.876-.961 1.093-1.481l.375-.903-.919-5.42-.918-5.42 3.781-3.69c2.08-2.031 3.93-3.983 4.113-4.338.762-1.483.039-3.701-1.47-4.505-.373-.199-2.6-.616-5.812-1.089l-5.206-.766-2.555-4.994c-2.338-4.569-2.62-5.033-3.313-5.441-.549-.324-1.044-.447-1.799-.447-.754 0-1.25.123-1.798.447zm4.543 7.071c2.263 4.568 2.754 5.336 3.735 5.847.283.147 2.829.61 5.656 1.027 2.827.417 5.214.804 5.305.86.483.299-.154 1.097-3.619 4.536-2.97 2.948-3.854 3.94-4.11 4.61-.324.848-.32.888.582 6.202.5 2.941.854 5.438.787 5.547-.262.423-1.01.119-5.45-2.215-4.265-2.243-4.663-2.414-5.63-2.414-.969 0-1.363.17-5.621 2.414-4.415 2.327-5.195 2.643-5.46 2.215-.068-.11.286-2.605.786-5.547.903-5.314.907-5.354.583-6.202-.256-.67-1.14-1.662-4.11-4.61-3.473-3.446-4.103-4.237-3.616-4.538.093-.057 2.47-.44 5.282-.849 2.813-.41 5.356-.87 5.653-1.025 1.031-.539 1.575-1.385 3.67-5.712 1.16-2.395 2.2-4.464 2.312-4.6.112-.134.38-.22.598-.188.31.044.883 1.04 2.667 4.642zM30.89 73.163c1.389.804 2.236.925 6.19.886l3.702-.037 1.565.783c.86.431 1.607.893 1.658 1.026.095.248-10.325 19.599-10.554 19.599-.07 0-1.077-1.394-2.237-3.098-1.16-1.704-2.32-3.295-2.576-3.537-.62-.582-1.696-.718-5.833-.735-3.062-.012-3.37-.043-3.26-.326.085-.224 8.117-15.105 8.955-16.592.046-.082.426.239.844.713.418.475 1.113 1.068 1.546 1.318z" fill="#fff"/></svg>