<svg width="33" height="33" fill="none" xmlns="http://www.w3.org/2000/svg"><path d="M25.512 17.488a1.666 1.666 0 00-2.357 0l-2.657 2.657c-1.231-.367-3.53-1.2-4.986-2.657-1.457-1.456-2.29-3.755-2.657-4.986l2.657-2.657a1.664 1.664 0 000-2.357L8.845.822a1.665 1.665 0 00-2.357 0l-4.52 4.52a3.33 3.33 0 00-.976 2.391c.038 2.374.666 10.617 7.163 17.114 6.497 6.496 14.74 7.123 17.115 7.163h.047c.88 0 1.711-.347 2.341-.977l4.52-4.52a1.665 1.665 0 000-2.356l-6.666-6.669zM25.3 28.675c-2.08-.035-9.197-.593-14.788-6.187-5.61-5.61-6.154-12.751-6.187-14.79l3.342-3.341 4.31 4.31-2.155 2.155a1.666 1.666 0 00-.454 1.52c.04.191 1.019 4.736 3.785 7.503 2.767 2.767 7.312 3.745 7.504 3.785a1.651 1.651 0 001.52-.452l2.156-2.155 4.31 4.31-3.343 3.342z" fill="#232323"/></svg>