<svg width="381" height="80" fill="none" xmlns="http://www.w3.org/2000/svg"><path d="M105.362 74.668c-4.867 0-9.26-1.08-13.18-3.24-3.852-2.228-6.927-5.266-9.224-9.114-2.23-3.849-3.346-8.17-3.346-12.963 0-4.793 1.115-9.08 3.346-12.86 2.23-3.849 5.237-6.887 9.022-9.115 3.852-2.228 8.11-3.342 12.773-3.342 4.528 0 8.516 1.047 11.963 3.14 3.513 2.093 6.25 4.962 8.211 8.607 2.027 3.646 3.041 7.798 3.041 12.456 0 .81-.068 1.654-.203 2.532a24.22 24.22 0 01-.405 2.734H94.49V44.39h27.092l-4.157 3.646c-.136-2.97-.709-5.469-1.723-7.494-1.014-2.025-2.468-3.578-4.359-4.658-1.825-1.08-4.09-1.62-6.792-1.62-2.839 0-5.306.607-7.4 1.822-2.096 1.215-3.718 2.937-4.867 5.165-1.149 2.16-1.723 4.76-1.723 7.797 0 3.039.608 5.705 1.824 8 1.217 2.296 2.94 4.085 5.17 5.368 2.23 1.215 4.799 1.823 7.705 1.823 2.5 0 4.798-.44 6.894-1.317 2.162-.877 3.987-2.16 5.474-3.848l7.096 7.19a22.765 22.765 0 01-8.617 6.279c-3.379 1.417-6.961 2.126-10.745 2.126zm26.984-1.012V25.047h11.151v48.609h-11.151zm11.151-27.039l-3.853-1.924c0-6.144 1.352-11.106 4.055-14.886 2.771-3.849 6.927-5.773 12.47-5.773 2.432 0 4.628.44 6.589 1.317 1.959.878 3.784 2.295 5.474 4.253l-7.299 7.494c-.879-.945-1.859-1.62-2.94-2.026-1.081-.405-2.331-.607-3.751-.607-3.109 0-5.677.979-7.704 2.937-2.028 1.957-3.041 5.03-3.041 9.215zm25.67 27.039V25.047l11.151 4.557v44.052h-11.151zm5.575-56.86c-1.891 0-3.48-.64-4.764-1.923-1.217-1.283-1.825-2.87-1.825-4.76 0-1.89.608-3.477 1.825-4.76 1.284-1.282 2.873-1.923 4.764-1.923 1.961 0 3.548.64 4.765 1.924 1.216 1.282 1.825 2.869 1.825 4.76 0 1.89-.609 3.476-1.825 4.759-1.217 1.283-2.804 1.924-4.765 1.924zm33.898 57.872c-4.393 0-8.381-1.114-11.962-3.342-3.515-2.227-6.319-5.232-8.414-9.012-2.028-3.849-3.042-8.136-3.042-12.861 0-4.794 1.014-9.08 3.042-12.861 2.095-3.849 4.899-6.887 8.414-9.115 3.581-2.295 7.569-3.443 11.962-3.443 3.717 0 6.995.81 9.833 2.43 2.907 1.553 5.204 3.714 6.894 6.482 1.69 2.768 2.534 5.907 2.534 9.418v13.975c0 3.51-.844 6.65-2.534 9.418-1.622 2.768-3.886 4.962-6.792 6.582-2.907 1.553-6.218 2.33-9.935 2.33zm1.825-10.532c2.77 0 5.17-.607 7.197-1.822 2.096-1.283 3.718-3.038 4.866-5.266 1.149-2.228 1.724-4.794 1.724-7.697 0-2.903-.575-5.468-1.724-7.696-1.148-2.228-2.77-3.95-4.866-5.165-2.027-1.282-4.427-1.924-7.197-1.924-2.704 0-5.103.642-7.198 1.924-2.027 1.215-3.649 2.937-4.866 5.165-1.148 2.228-1.723 4.793-1.723 7.696 0 2.903.575 5.469 1.723 7.697 1.217 2.227 2.839 3.983 4.866 5.266 2.095 1.215 4.494 1.822 7.198 1.822zm24.228 9.52h-11.151V60.592l1.926-11.848-1.926-11.747V.743h11.151v72.913zm7.915 0v-46.28l11.152-2.329v48.609h-11.152zm5.576-57.52c-1.893 0-3.481-.642-4.765-1.925-1.216-1.283-1.824-2.869-1.824-4.76 0-1.89.608-3.476 1.824-4.759 1.284-1.283 2.872-1.924 4.765-1.924 1.96 0 3.548.641 4.765 1.924 1.216 1.283 1.824 2.87 1.824 4.76 0 1.89-.608 3.476-1.824 4.76-1.217 1.282-2.805 1.923-4.765 1.923zm33.897 58.532c-4.393 0-8.381-1.114-11.963-3.342-3.514-2.227-6.318-5.232-8.414-9.012-2.027-3.849-3.041-8.136-3.041-12.861 0-4.794 1.014-9.08 3.041-12.861 2.096-3.849 4.9-6.887 8.414-9.115 3.582-2.295 7.57-3.443 11.963-3.443 3.717 0 6.994.81 9.833 2.43 2.906 1.553 5.203 3.714 6.893 6.482 1.69 2.768 2.535 5.907 2.535 9.418v13.975c0 3.51-.845 6.65-2.535 9.418-1.622 2.768-3.885 4.962-6.792 6.582-2.906 1.553-6.217 2.33-9.934 2.33zm1.824-10.532c4.123 0 7.434-1.384 9.935-4.152 2.568-2.768 3.852-6.312 3.852-10.633 0-2.903-.575-5.468-1.723-7.696-1.149-2.228-2.771-3.95-4.866-5.165-2.028-1.282-4.427-1.924-7.198-1.924-2.703 0-5.102.642-7.197 1.924-2.028 1.215-3.65 2.937-4.866 5.165-1.149 2.228-1.724 4.793-1.724 7.696 0 2.903.575 5.469 1.724 7.697 1.216 2.227 2.838 3.983 4.866 5.266 2.095 1.215 4.494 1.822 7.197 1.822zm13.078 9.52V60.592l1.926-11.848-1.926-11.747v-11.95l10.398 2.33.753 46.279h-11.151zm52.317 0V45.604c0-3.24-1.047-5.907-3.143-8-2.027-2.093-4.663-3.14-7.907-3.14-2.162 0-4.088.474-5.778 1.419a10.101 10.101 0 00-3.954 3.95c-.946 1.687-1.419 3.611-1.419 5.771l-4.359-2.43c0-3.713.811-6.988 2.433-9.823 1.622-2.903 3.852-5.165 6.691-6.785 2.906-1.688 6.15-2.532 9.731-2.532 3.65 0 6.894.945 9.732 2.836a19.536 19.536 0 016.691 7.19c1.622 2.903 2.433 5.94 2.433 9.114v30.482H349.3zm-33.352 0V25.047h11.151v48.609h-11.151z" fill="#3A5041"/><path fill-rule="evenodd" clip-rule="evenodd" d="M.658 69.186a.827.827 0 01-.658-.81V23.563c0-.457.37-.828.827-.828h9.488c.456 0 .826.37.826.828v4.145a16.845 16.845 0 014.66-3.655c2.768-1.554 5.874-2.331 9.318-2.331 3.443 0 6.55.743 9.318 2.23a16.792 16.792 0 016.33 5.874 18.848 18.848 0 016.634-5.774c2.904-1.553 6.077-2.33 9.52-2.33 3.512 0 6.685.743 9.521 2.23 2.837 1.486 5.098 3.58 6.787 6.282 1.688 2.703 2.532 5.946 2.532 9.73v31.208l-10.315.208a.827.827 0 01-.827-.828V42.396c0-3.243-1.013-5.743-3.038-7.5-2.026-1.824-4.524-2.736-7.495-2.736-1.958 0-3.748.405-5.368 1.216a9.283 9.283 0 00-3.85 3.547c-.763 1.201-1.218 2.624-1.365 4.267a.914.914 0 01-.052.233v29.13c0 .456-.37.827-.827.827h-9.488a.827.827 0 01-.826-.828V42.396c0-3.243-1.013-5.743-3.039-7.5-2.026-1.824-4.524-2.736-7.495-2.736-2.026 0-3.849.405-5.47 1.216-1.552.81-2.802 1.993-3.747 3.547-.732 1.152-1.181 2.508-1.346 4.066a.922.922 0 01-.072.272v29.1a.827.827 0 01-.995.81L.658 69.187z" fill="#3A5041"/><path d="M370.794 64.318a1.597 1.597 0 012.766 0l4.74 8.21a1.597 1.597 0 01-1.383 2.396h-9.48a1.597 1.597 0 01-1.383-2.396l4.74-8.21z" fill="#3A5041"/></svg>