<svg width="105" height="100" fill="none" xmlns="http://www.w3.org/2000/svg"><g clip-path="url(#clip0_2_463)"><path fill-rule="evenodd" clip-rule="evenodd" d="M26.112 4.918l-13.1 22.697L0 50.159l8.929 15.49c4.911 8.519 8.999 15.57 9.084 15.667.21.24 2.694-1.285 2.575-1.58-.05-.129-1.293-2.304-2.759-4.834-2.17-3.745-2.61-4.633-2.36-4.773.582-.325 2.723.092 4.16.811 2.06 1.03 3.445 2.779 4.085 5.158l.238.883 1.674-.132c2.337-.184 4.642.26 6.849 1.319 1.408.676 2.059 1.157 3.403 2.516 1.063 1.076 1.91 2.16 2.35 3.01.378.731.714 1.362.746 1.401.032.04.501-.069 1.043-.241 2.736-.871 5.118-.472 7.357 1.233 1.436 1.093 2.727 3.753 2.727 5.621v.782l-11.092-.052-11.091-.053-2.712-4.703c-1.492-2.587-2.803-4.734-2.914-4.77-.27-.092-2.455 1.17-2.455 1.417 0 .108 1.435 2.678 3.189 5.711l3.188 5.516 26.167-.052 26.166-.052 13.077-22.646L104.7 50.159 91.624 27.513 78.547 4.866l-17.7-.052-17.699-.052v3.063l5.878.054 5.878.055.153 1.219c.419 3.356 1.763 6.024 4.34 8.613 1.564 1.573 2.147 2.004 3.79 2.81 2.288 1.122 3.687 1.509 6.13 1.693l1.795.136.55 1.336c2.104 5.125 6.925 9.144 12.421 10.356 1.739.383 4.359.488 6.418.257l1.448-.162 4.534 7.86c2.493 4.324 4.531 7.986 4.526 8.138-.003.152-5.457 9.708-12.118 21.235l-12.112 20.96-11.805.053-11.806.052-.003-.87c-.008-2.42-1.226-5.247-3.064-7.115-2.124-2.156-4.561-3.145-7.711-3.125l-1.883.011-1.05-1.41c-2.573-3.46-6.956-5.807-11.603-6.213l-1.668-.145-.63-1.116c-1.964-3.48-5.49-5.495-9.502-5.429-1.012.017-2.02.059-2.241.093-.333.052-1.233-1.372-5.26-8.321-2.67-4.611-4.856-8.522-4.856-8.69 0-.17 5.45-9.74 12.112-21.267L27.92 7.933 34 7.88l6.08-.055v-3.06h-6.94c-3.817 0-6.98.068-7.029.153zm57.382 14.64c3.692 6.393 6.657 11.68 6.588 11.75-.069.069-1.064.12-2.212.112-6.735-.042-12.555-4.602-14.143-11.08l-.361-1.474-1.05.157c-.579.087-1.834.143-2.79.126-5.603-.1-10.728-4.694-11.375-10.195l-.132-1.127 9.38.054 9.381.053 6.714 11.624zm-13.15-6.103v1.533h3.068v-3.067h-3.068v1.534zm-43.45 3.604c-.404.689-.708 1.272-.675 1.296.365.264 2.403 1.336 2.542 1.336.193 0 1.6-2.43 1.475-2.547-.225-.21-2.267-1.338-2.423-1.338-.102 0-.516.564-.92 1.253zm50.036 3.91l.06 1.483 1.483.06 1.482.06v-3.085H76.87l.06 1.482zm-52.992 1.227c-.333.59-.624 1.166-.645 1.278-.041.21 2.006 1.532 2.376 1.533.208 0 1.636-2.421 1.5-2.544-.305-.273-2.21-1.34-2.394-1.34-.127 0-.504.483-.837 1.073zm23.933 1.71c-10.996 1.843-19.997 10.915-21.787 21.96-2.089 12.888 5.502 25.385 17.95 29.549 13.837 4.628 28.955-3.001 33.564-16.94 4.606-13.926-2.942-28.892-16.931-33.571-1.144-.383-2.954-.838-4.023-1.01-2.368-.385-6.44-.379-8.773.012zm-27.046 3.661c-.539.942-.68 1.356-.51 1.485.453.342 2.152 1.273 2.323 1.273.28 0 1.556-2.475 1.364-2.645-.098-.087-.684-.44-1.304-.788l-1.127-.631-.746 1.306zm37.25-.249c8.47 2.238 14.89 8.659 17.114 17.116.694 2.64.865 6.855.388 9.59a24.537 24.537 0 01-3.81 9.454c-1.126 1.674-4.424 4.972-6.098 6.097-4.038 2.715-8.537 4.1-13.319 4.1-6.384 0-12.01-2.35-16.589-6.927-3.177-3.178-5.266-6.859-6.357-11.202-.616-2.455-.663-7.913-.09-10.397 1.024-4.433 3.193-8.329 6.446-11.578 3.541-3.538 7.614-5.705 12.43-6.613 2.515-.475 7.399-.297 9.886.36zm-9.822 3.391c-5.968 1.302-10.85 5.092-13.595 10.555-1.689 3.36-2.014 4.797-2.014 8.895 0 4.099.325 5.535 2.014 8.895 2.012 4.005 4.792 6.785 8.797 8.797 2.892 1.454 4.817 1.95 8.077 2.085 2.887.119 5.142-.207 7.63-1.102 1.6-.576 4.1-1.911 4.724-2.522.385-.378.377-.403-.467-1.52-.472-.626-.898-1.137-.947-1.137-.049 0-.641.358-1.317.794-2.797 1.808-5.93 2.595-9.611 2.415-2.759-.135-4.195-.485-6.469-1.576-4.312-2.07-7.732-6.18-9.014-10.835-.514-1.869-.514-6.719 0-8.588 1.282-4.654 4.702-8.764 9.014-10.835 2.636-1.266 3.873-1.526 7.275-1.526 3.483 0 4.688.265 7.464 1.636 4.25 2.1 7.557 6.12 8.825 10.725.515 1.87.515 6.72 0 8.588-.522 1.895-1.776 4.4-2.973 5.938l-1.03 1.322.956.97c.525.535 1.062.972 1.193.972.436 0 2.348-2.721 3.373-4.8 1.577-3.2 1.898-4.673 1.898-8.696 0-4.098-.325-5.535-2.014-8.895-2.012-4.004-4.792-6.785-8.797-8.797-3.052-1.534-4.806-1.965-8.384-2.061-2.251-.06-3.235.004-4.608.303zm-20.44 53.088v1.533h3.067v-3.067h-3.068v1.534zm6.134 4.703v1.533h3.067v-3.067h-3.067V88.5z" fill="#fff"/></g><defs><clipPath id="clip0_2_463"><path fill="#fff" d="M0 0h104.762v100H0z"/></clipPath></defs></svg>