<svg width="29" height="29" fill="none" xmlns="http://www.w3.org/2000/svg"><path d="M22.264 28.533c-.28 0-.56-.031-.833-.091a28.258 28.258 0 01-13.85-7.292 27.258 27.258 0 01-7.5-13.542 3.817 3.817 0 011.125-3.566L4.54.833a1.667 1.667 0 011.284-.45 1.667 1.667 0 011.208.725l4.167 6.159a1.333 1.333 0 01-.092 1.583l-2.092 2.5a15.783 15.783 0 003.475 4.908 16.05 16.05 0 005.059 3.409l2.591-2.059a1.366 1.366 0 011.55-.1l6.292 4.067a1.668 1.668 0 01.342 2.591l-3.25 3.217a3.949 3.949 0 01-2.809 1.15zM5.69 2.033L2.356 5.242a2.117 2.117 0 00-.625 2A25.584 25.584 0 008.74 19.958a26.584 26.584 0 0013.034 6.859 2.292 2.292 0 002.083-.617l3.25-3.217-6.075-3.925-2.783 2.217a.833.833 0 01-.767.142 16.718 16.718 0 01-6.133-3.959 16.242 16.242 0 01-4.059-6 .833.833 0 01.2-.792l2.25-2.691-4.05-5.942z" fill="#fff"/></svg>