<svg width="86" height="100" fill="none" xmlns="http://www.w3.org/2000/svg"><path fill-rule="evenodd" clip-rule="evenodd" d="M6.862.413c-.333.262-.621.793-.822 1.514-.666 2.39-.929 3.01-1.681 3.962-.43.543-1.323 1.327-1.985 1.742C.55 8.775.15 9.131.038 9.723c-.186.975.302 1.712 1.59 2.398 2.308 1.23 3.762 3.196 4.324 5.848.33 1.55.883 2.161 1.956 2.161 1.131 0 1.614-.555 2.048-2.353.194-.8.55-1.852.791-2.336.555-1.11 2.263-2.736 3.57-3.399 1.138-.576 1.695-1.402 1.506-2.23-.175-.767-.46-1.057-1.761-1.796-2.301-1.306-3.47-2.895-4.117-5.599C9.43.268 8.125-.58 6.862.413zm1.455 6.092c.143.35.95 1.326 1.793 2.171l1.532 1.537-.45.3c-.748.498-2.38 2.274-2.79 3.04-.213.394-.433.712-.49.707-.055-.005-.409-.496-.785-1.092-.668-1.058-1.895-2.34-2.642-2.757-.34-.19-.248-.325 1.002-1.483.757-.7 1.59-1.675 1.85-2.166.26-.49.528-.892.596-.892.068 0 .24.286.384.635zm70.331 8.302c-.345.349-.62.933-.781 1.665-.32 1.445-1.183 2.578-2.608 3.423-.816.484-1.164.827-1.32 1.297-.325.986.001 1.53 1.5 2.5 1.4.908 2.202 2.018 2.504 3.47.35 1.689 1.292 2.39 2.52 1.876.67-.28.849-.607 1.379-2.518.355-1.28 1.312-2.39 2.649-3.072.53-.271.897-.633 1.078-1.066.422-1.01.083-1.716-1.161-2.418-1.472-.83-2.185-1.738-2.673-3.4-.658-2.244-1.904-2.953-3.087-1.757zm2.102 5.928l.856.955-.856.93c-.471.51-.914.929-.984.929-.07 0-.498-.42-.95-.934l-.822-.934.852-.95c.469-.524.896-.952.95-.952.053 0 .483.43.954.956zm-65.225.812c-.83.565-4.743 7.19-4.748 8.04-.002.379.174.72.528 1.025 1.114.958 1.643.563 3.454-2.58.927-1.608 1.479-2.385 1.605-2.259.106.106 2.492 4.176 5.303 9.044l5.11 8.852-10.442.051c-5.743.028-10.473.019-10.512-.02-.039-.038.94-1.82 2.177-3.957 2.465-4.265 2.64-4.824 1.738-5.534-.662-.52-1.101-.511-1.719.035-.664.587-5.983 9.835-6.111 10.625a2.24 2.24 0 00.184 1.193c.273.549 37.1 41.968 38.645 43.465.644.624.885.733 1.626.733.48 0 1.008-.053 1.174-.117.343-.131 38.96-43.236 39.328-43.898.559-1.004.333-1.687-1.761-5.327L74.82 29.995c-2.348-4.083-4.453-7.63-4.677-7.881-.946-1.064.617-1.007-27.717-1.007H16.17l-.646.44zm23.887 3.428l-5.23 9.078c-2.578 4.477-4.732 8.142-4.786 8.144-.076.002-5.036-8.524-10.015-17.215l-.541-.945h21.113l-.541.938zm26.71-.858c0 .326-10.443 18.075-10.562 17.952-.2-.206-10.34-17.786-10.34-17.925 0-.059 4.703-.107 10.45-.107 5.749 0 10.452.036 10.452.08zM47.858 34.684l5.186 8.985-.563.234c-1.55.642-1.042 2.794.66 2.794.447 0 .507.065.41.44-.542 2.106-10.983 37.262-11.066 37.262-.06 0-2.558-8.373-5.552-18.607-2.994-10.233-5.485-18.716-5.535-18.85-.07-.193 1.481-.245 7.354-.245 7.184 0 7.458-.013 7.835-.39.593-.594.585-1.43-.02-2.052-.364-.372-.707-.395-7.476-.488l-7.094-.098 5.195-9.026c2.857-4.964 5.26-9.008 5.337-8.986.079.023 2.477 4.084 5.329 9.027zm26.359.162l5.153 8.921H68.839c-5.792 0-10.531-.038-10.531-.084 0-.046 2.341-4.14 5.203-9.096 3.064-5.306 5.276-8.94 5.379-8.837.096.096 2.493 4.19 5.327 9.096zm-41.56 26.795l5.318 18.152.968 3.305-.647-.668C37.165 81.263 6.541 46.894 6.541 46.792c0-.054 4.897-.075 10.883-.047l10.884.05 4.35 14.846zm45.446-14.309c-.329.35-7.346 8.195-15.595 17.435-8.25 9.24-15.34 17.151-15.758 17.581-.756.778-.759.778-.564.195.108-.322 2.356-7.926 4.996-16.897 2.64-8.971 4.975-16.905 5.19-17.63l.39-1.319H78.7l-.598.635zm-10.66 26.142c-.507.295-.727.812-1.344 3.166-.608 2.317-1.279 3.67-2.521 5.08-.804.914-2.803 2.343-4.156 2.973-1.257.585-1.7 2.088-.909 3.093.22.28 1.033.84 1.807 1.246 1.89.99 3.974 3.054 4.79 4.744.338.698.841 2.148 1.118 3.223.406 1.575.62 2.062 1.105 2.513.515.478.716.544 1.385.454 1.167-.157 1.48-.61 2.105-3.049.306-1.198.845-2.718 1.197-3.378.895-1.68 2.67-3.38 4.737-4.538 1.38-.774 1.78-1.101 2.005-1.642.242-.577.244-.778.016-1.378-.27-.712-.402-.817-2.732-2.183-1.53-.897-1.954-.941-2.62-.275-.774.774-.593 1.587.54 2.423l.91.672-1.105.766c-2.112 1.463-3.854 3.509-4.786 5.62l-.454 1.03-.745-1.508c-.853-1.724-2.801-3.94-4.489-5.102-.595-.41-1.082-.767-1.082-.794 0-.026.561-.449 1.248-.939 1.744-1.244 3.296-3.033 4.252-4.898l.813-1.588.46.46c.621.621 1.541.533 2.086-.2l.401-.54-.558-2.29c-.66-2.704-1.135-3.375-2.387-3.365-.412.004-.9.095-1.088.204z" fill="#fff"/></svg>